<?xml version="1.0" encoding="UTF-8"?>
<!DOCTYPE svg PUBLIC "-//W3C//DTD SVG 1.1//EN" "http://www.w3.org/Graphics/SVG/1.1/DTD/svg11.dtd">
<!-- Creator: CorelDRAW 2021 (64 Bit) -->
<svg xmlns="http://www.w3.org/2000/svg" xml:space="preserve" width="16.9332mm" height="9.7366mm" version="1.1" style="shape-rendering:geometricPrecision; text-rendering:geometricPrecision; image-rendering:optimizeQuality; fill-rule:evenodd; clip-rule:evenodd"
viewBox="0 0 1693.32 973.66"
 xmlns:xlink="http://www.w3.org/1999/xlink"
 xmlns:xodm="http://www.corel.com/coreldraw/odm/2003">
 <defs>
  <style type="text/css">
   <![CDATA[
    .str0 {stroke:#CCCCCC;stroke-width:16.93;stroke-linecap:round;stroke-linejoin:round;stroke-miterlimit:22.9256}
    .fil0 {fill:#FEFEFE;fill-rule:nonzero}
    .fil2 {fill:#EE4777;fill-rule:nonzero}
    .fil1 {fill:#7FCBB5;fill-rule:nonzero}
   ]]>
  </style>
 </defs>
 <g id="Camada_x0020_1">
  <metadata id="CorelCorpID_0Corel-Layer"/>
  <path class="fil0 str0" d="M830.95 891.92c-9.09,14.12 -20.25,26.95 -33.34,38.02 -36.58,30.95 -82.73,44.01 -130.11,44.01 -53.47,0 -104.79,-16.99 -142.33,-56.15 -14.98,-15.62 -26.69,-33.78 -34.89,-53.41 -7.76,12.09 -16.72,23.49 -26.84,34.01 -49.21,51.13 -116.59,72.73 -186.44,72.73l-147.29 0c-25.49,0 -47.32,-18.19 -47.32,-44.47 0,-20.91 12.94,-34.45 30.5,-42.86 1.87,-2.25 3.81,-7.79 4.52,-10.14 3.65,-12.21 4.48,-26.83 4.48,-39.49l0 -131.08c-11.73,5.7 -25.07,8.6 -39.02,8.6 -48.33,0 -82.87,-36.53 -82.87,-84.51 0,-29.87 11.5,-59.35 31.51,-81.51 24.6,-27.25 58.66,-40.36 94.97,-41.33l0.48 -0.02 81.1 0c10.14,-39.11 34.63,-73.31 69.73,-94.1l0 -104.09c-0.43,-11.15 -1.67,-23.96 -5.3,-34.53 -0.7,-2.01 -2.55,-6.72 -4.24,-8.6 -17.26,-8.43 -29.9,-21.91 -29.9,-42.58 0,-26.26 21.82,-44.45 47.29,-44.45l147.63 0c81.43,0 160.32,24.81 218.04,84.11 29.01,29.8 49.94,65.83 62.06,104.8 35.97,-54.8 95.62,-82.48 161.66,-82.48 43.64,0 81.97,19.67 109.1,53.45 4.6,5.73 8.88,11.9 12.76,18.4 1.04,-19.79 10.13,-36.73 22.28,-42.48 -3.34,-6.23 -6.62,-12.51 -9.81,-18.88 -12.65,-25.32 -24.13,-51.53 -32.93,-78.44 -12,-36.68 -20.29,-78.79 -12.18,-117.13 7.17,-33.91 26.17,-61.52 57.22,-77.52 39,-20.09 74.95,-21 115.53,-1.16 32.04,15.66 52.03,43.43 59.54,78.08 11.54,53.18 -9.29,111.82 -27.59,161.23 -7.08,19.1 -15.56,37.5 -25.52,55.28 -0.04,0.09 -0.09,0.17 -0.14,0.26 13,14.86 20.66,34.23 20.7,54.95 0.07,41.23 0.25,82.75 0.25,124.23 1.79,-3.08 3.75,-6.1 5.91,-9.04 7.1,-9.67 15.66,-17.75 25.12,-24.64 -13.42,-13.56 -21.56,-32.85 -21.56,-55.55 0,-31.53 15.23,-61.12 38.13,-82.26 25.06,-23.14 57.96,-35.39 91.99,-35.39 50.23,0 103.27,10.35 140.58,46.48 25.98,25.16 39.17,57.91 43.39,93.39l12.79 107.58c4.82,0.13 9.7,1.18 14.57,3.33 11.14,4.93 18.51,14.2 22.31,25.52l0.32 0.98 0.27 0.99c4.69,17.22 1.2,36.36 -10.8,49.46 2.47,0.26 4.94,0.57 7.39,0.92 12.3,1.75 24.33,4.54 36.37,7.51 1.16,0.28 2.44,0.62 3.8,0.98 6.31,-8.94 16.28,-15.18 27.92,-17.15l2.99 -0.51 3.03 0c21.83,0 40.07,15.16 41.57,37.02l13.09 113.1 0 2.08c0,4.95 -0.84,9.61 -2.37,13.88 19.27,19.47 32.27,43.64 32.27,74.66 0,20.03 -5.09,39.19 -15.34,56.42 -32.37,54.42 -106.88,75.47 -166.84,75.47 -10.56,0 -21.14,-0.83 -31.57,-2.41 -35.4,-5.37 -76.43,-21.09 -102.09,-48.86 -28.78,30.87 -72.55,46.75 -117.45,46.75 -57.18,0 -109.37,-21.08 -143.13,-64.34 -27.15,42.41 -78.36,64.35 -131.14,64.35 -64.27,0 -122.23,-26.64 -154.81,-81.47z"/>
  <path class="fil1" d="M668.07 667.41c-71.68,0 -71.68,253.8 0,253.8 71.09,0 71.67,-253.8 0,-253.8zm-155.75 126.34c0,-72.2 51.91,-143.83 155.75,-143.83 103.26,0 155.18,72.2 155.18,143.83 0,72.19 -51.92,143.81 -155.75,143.81 -103.27,0 -155.18,-72.19 -155.18,-143.81z"/>
  <path class="fil1" d="M1096.37 852.4c1.7,0.56 2.82,2.26 2.82,3.94 -9.02,50.77 -56.43,80.66 -113.43,80.66 -199.77,0 -187.34,-290.46 13.55,-290.46 63.77,0 98.19,42.86 98.19,88.54 0,28.21 -20.31,41.18 -40.63,41.18 -19.76,0 -39.5,-12.4 -39.5,-37.22 0,-28.77 31.6,-76.15 -18.06,-76.15 -66.59,0 -85.77,224.48 31.04,224.48 30.47,0 55.29,-16.93 61.51,-32.71 0.57,-1.7 2.25,-2.82 3.95,-2.26l0.56 0z"/>
  <path class="fil1" d="M1282.59 766.11c45.71,-6.21 29.91,-103.21 -9.03,-103.21 -32.17,0 -53.61,52.45 -53.61,106.59l62.64 -3.38zm88.03 86.3c1.7,0.55 2.83,2.24 2.83,3.94 -9.03,50.76 -56.44,80.64 -113.42,80.64 -199.78,0 -187.36,-290.46 13.53,-290.46 71.11,0 108.92,68.82 108.92,113.93l0 0.57c0,12.98 -11.29,22.56 -28.79,23.69l-132.61 6.76c5.65,50.2 30.48,95.89 83.52,95.89 30.47,0 55.31,-16.93 61.52,-32.72 0.56,-1.69 2.24,-2.82 3.94,-2.24l0.56 0z"/>
  <path class="fil1" d="M1469.94 684.89c0,55.27 187.35,68.25 187.35,160.74 0,66.55 -80.14,95.88 -146.15,95.88 -58.14,0 -122.47,-31.01 -122.47,-75.57 0,-61.47 81.27,-58.67 81.27,-6.2 0,18.61 -16.36,25.93 -16.36,37.77 0,33.84 131.48,40.62 131.48,-11.27 0,-51.89 -184.54,-66.55 -184.54,-152.28 0,-62.6 64.91,-85.73 110.04,-85.73 30.47,0 64.91,13.53 78.44,13.53 8.47,0 14.12,-7.88 14.68,-16.35 0,-2.26 1.7,-3.94 5.08,-4.51 3.38,0 5.65,1.13 5.65,3.95l12.97 112.23c0,3.39 -2.82,5.09 -6.77,5.09 -4.52,0 -7.9,-1.7 -8.47,-5.09 -24.26,-107.72 -142.2,-103.2 -142.2,-72.19z"/>
  <path class="fil2" d="M884.05 437.42c45.64,-6.2 29.86,-103.06 -9.02,-103.06 -32.12,0 -53.52,52.37 -53.52,106.44l62.54 -3.38zm87.9 86.16c1.68,0.56 2.82,2.25 2.82,3.93 -9.01,50.69 -56.36,80.54 -113.26,80.54 -199.47,0 -187.07,-290.03 13.52,-290.03 70.99,0 108.76,68.71 108.76,113.77l0 0.56c0,12.95 -11.28,22.52 -28.75,23.65l-132.41 6.75c5.64,50.12 30.42,95.74 83.4,95.74 30.42,0 55.22,-16.89 61.41,-32.66 0.56,-1.69 2.25,-2.81 3.95,-2.25l0.56 0z"/>
  <path class="fil2" d="M1364.12 521.89l-8.45 -80.53c-19.16,40.54 -63.67,47.87 -63.67,101.36 0,38.3 60.86,29.29 72.12,-20.83zm76.63 87.85c-64.23,0 -71,-33.22 -72.68,-48.43l-0.56 -5.07c-37.75,82.78 -180.31,76.59 -180.31,-13.52 0,-95.73 171.29,-74.34 164.52,-139.66 -2.25,-17.45 -12.38,-63.63 -54.64,-63.63 -46.21,0 -6.21,38.86 -6.21,68.14 0,43.37 -81.14,54.62 -81.14,-4.51 0,-39.98 39.44,-81.65 94.1,-81.65 82.83,0 139.18,30.98 148.2,108.12l13.52 113.76c2.25,19.15 2.25,31.53 14.65,31.53 3.95,0 8.45,-1.13 12.96,-3.37 6.19,-3.94 8.44,-3.38 10.14,1.69 1.69,6.19 0.56,13.51 -3.95,16.9 -9.57,9.01 -28.73,19.7 -58.6,19.7z"/>
  <path class="fil1" d="M465.51 639.3c-8.19,-14.52 -18.37,-28.09 -30.52,-40.26 -6.68,2.1 -13.62,3.16 -20.53,3.16 -14.91,0 -29.09,-4.77 -39.9,-13.41 -11.82,-9.45 -18.42,-22.67 -18.68,-37.3 -23.13,-7.42 -49.24,-11.55 -78.33,-11.55l-4.58 0c-0.04,0.93 -0.07,1.86 -0.07,2.78 0,4.77 0.49,9.49 1.36,14.15l3.29 0c46.06,0 77.54,36.12 94.47,85.5 13.81,3.44 28.16,5.26 42.48,5.26 17.06,0 34.39,-2.62 51.01,-8.33z"/>
  <path class="fil1" d="M423.13 694.43c-13.51,0 -26.74,-0.89 -39.53,-2.6 14.46,102.52 -20.88,226 -106.04,226l-17.5 0 0 -284.65c-21.48,-24.22 -32.68,-54.16 -32.68,-88.2 0,-1.69 0.03,-3.36 0.1,-5.03l-100.03 0c-62.63,1.68 -91.42,47.94 -91.42,86.85 0,33.27 23.7,48.5 46.84,48.5 60.39,0 56.43,-78.39 10.72,-78.39 -34.42,0 -9.03,-39.49 26.53,-39.49 11.85,0 24.82,12.98 31.59,33.28 1.14,4.52 2.82,9.6 3.39,15.24l1.13 7.32c1.13,7.91 1.69,17.49 1.69,27.64l0 192.89c0,52.45 -14.1,75.02 -28.78,81.78 -7.34,3.38 -10.72,6.2 -10.72,10.71 0,5.08 4.52,8.46 11.29,8.46l147.29 0c142.77,0 213.87,-98.69 213.87,-197.39 0,-16.46 -1.99,-32.9 -5.93,-48.9 -20.25,3.93 -41.01,5.98 -61.81,5.98z"/>
  <path class="fil2" d="M415.8 228.49l0 206.68c38.32,16.89 58.05,49.55 58.05,80.52 0,99.67 -106.5,87.86 -106.5,34.91 0,-39.41 42.82,-38.85 42.82,-74.33 0,-17.45 -23.66,-36.03 -52.41,-36.03 -59.16,0 -96.34,50.11 -96.34,102.49 0,137.96 322.29,203.28 322.29,-94.06 0,-109.24 -54.66,-220.18 -163.4,-220.18l-4.51 0zm-130.16 -16.9l147.63 0c170.74,0 256.38,117.14 256.38,234.27 0,285.51 -450.78,306.36 -450.78,99.12 0,-47.87 27.05,-94.61 74.94,-112.63l0 -127.27c-1.68,-47.31 -15.21,-67.58 -28.73,-74.33 -7.33,-3.39 -10.7,-6.21 -10.7,-10.71 0,-5.07 4.5,-8.45 11.26,-8.45z"/>
  <path class="fil1" d="M467.13 642.34l-1.61 -3.03 -18.09 -0.99 6.7 4.02 -82.15 0c5.93,17.31 10.08,36.23 12.43,55.81l102.64 0c-3.79,-19.4 -10.43,-38.25 -19.92,-55.81z"/>
  <path class="fil1" d="M1093.82 294.56c10.52,-56.38 30.73,-146.25 27.64,-188.56 -1.77,-24.34 -8.33,-34.2 -15.58,-44.95 16.17,7.01 35.28,15.27 41.93,45.85 6.92,31.95 -2.34,70.5 -26.75,135.76 -9.45,25.28 -19.54,35.33 -27.24,51.9zm-80.78 -187.32c6.48,-30.6 25.53,-38.95 41.68,-46.06 -7.2,10.79 -13.71,20.67 -15.36,45.04 -2.86,42.31 17.83,132.11 28.64,188.41 -7.82,-16.58 -17.97,-26.64 -27.58,-51.95 -24.72,-65.03 -34.15,-103.48 -27.38,-135.44zm60.33 -46.71l0.5 189.72c-10.29,-57.47 -22.86,-111.13 -20.69,-143.1 2.02,-30.18 12.36,-39.16 20.19,-46.62zm13.84 -0.13c7.86,7.31 18.25,16.19 20.46,46.61 2.32,31.94 -9.99,85.68 -19.96,143.21l-0.5 -189.82zm7.43 264.31c5.81,-11.44 24.26,-35.76 40.52,-79.65 24.92,-67.25 33.74,-106.21 26.18,-141.09 -12.9,-59.44 -67.94,-61.87 -78.88,-63.05l-0.2 -0.29 -2.36 0.14c-0.13,0 -0.41,0.01 -0.8,0.05l-2.06 0.08 -0.03 0.14c-13.07,1.56 -65.18,5.02 -77.51,63.34 -16.53,78.1 55.43,196.43 67.83,220.4l-12.51 69.28 52.69 -0.15 -12.87 -69.2z"/>
  <path class="fil2" d="M1032.94 419.66l0.24 137.27c0,26.22 21.26,47.48 47.5,47.48 26.23,0 47.5,-21.26 47.5,-47.48l0.04 0 0 -137.27 -95.28 0z"/>
  <path class="fil2" d="M1128.21 513.28l-0.25 -145.16c0,-26.23 -21.26,-47.48 -47.5,-47.48 -26.24,0 -47.5,21.25 -47.5,47.48l-0.04 0 0 145.16 95.29 0z"/>
  <path class="fil1" d="M1033.43 561.89c2.49,23.88 22.69,42.52 47.25,42.52 24.56,0 44.77,-18.64 47.24,-42.52l-94.49 0z"/>
 </g>
</svg>
